<mxfile host="app.diagrams.net" modified="2024-03-26T16:19:34.292Z" agent="Mozilla/5.0 (Windows NT 10.0; Win64; x64) AppleWebKit/537.36 (KHTML, like Gecko) Chrome/123.0.0.0 Safari/537.36" etag="KccKyP91srRshfLRXwM3" version="24.1.0" type="github">
  <diagram name="Page-1" id="6133507b-19e7-1e82-6fc7-422aa6c4b21f">
    <mxGraphModel dx="2150" dy="522" grid="1" gridSize="10" guides="1" tooltips="1" connect="1" arrows="1" fold="1" page="1" pageScale="1" pageWidth="1100" pageHeight="850" background="none" math="0" shadow="0">
      <root>
        <mxCell id="0" />
        <mxCell id="1" parent="0" />
        <mxCell id="MJDXx_GrSuv8oWpGFcrC-1" value="2.1" style="swimlane;whiteSpace=wrap;html=1;" vertex="1" parent="1">
          <mxGeometry x="-930" y="130" width="100" height="130" as="geometry" />
        </mxCell>
        <mxCell id="MJDXx_GrSuv8oWpGFcrC-2" value="&lt;font style=&quot;font-size: 19px;&quot;&gt;Billing&lt;/font&gt;" style="text;html=1;align=center;verticalAlign=middle;resizable=0;points=[];autosize=1;strokeColor=none;fillColor=none;" vertex="1" parent="1">
          <mxGeometry x="-915" y="173" width="70" height="40" as="geometry" />
        </mxCell>
        <mxCell id="MJDXx_GrSuv8oWpGFcrC-3" value="" style="endArrow=classic;html=1;rounded=0;" edge="1" parent="1">
          <mxGeometry width="50" height="50" relative="1" as="geometry">
            <mxPoint x="-1060" y="180" as="sourcePoint" />
            <mxPoint x="-930" y="180" as="targetPoint" />
          </mxGeometry>
        </mxCell>
        <mxCell id="MJDXx_GrSuv8oWpGFcrC-5" value="" style="endArrow=classic;html=1;rounded=0;" edge="1" parent="1">
          <mxGeometry width="50" height="50" relative="1" as="geometry">
            <mxPoint x="-830" y="180" as="sourcePoint" />
            <mxPoint x="-700" y="180" as="targetPoint" />
          </mxGeometry>
        </mxCell>
        <mxCell id="MJDXx_GrSuv8oWpGFcrC-6" value="" style="endArrow=classic;html=1;rounded=0;exitX=0;exitY=0.75;exitDx=0;exitDy=0;" edge="1" parent="1" source="MJDXx_GrSuv8oWpGFcrC-50">
          <mxGeometry width="50" height="50" relative="1" as="geometry">
            <mxPoint x="-668.48" y="218" as="sourcePoint" />
            <mxPoint x="-830" y="220" as="targetPoint" />
          </mxGeometry>
        </mxCell>
        <mxCell id="MJDXx_GrSuv8oWpGFcrC-9" value="" style="endArrow=classic;html=1;rounded=0;entryX=0;entryY=0.5;entryDx=0;entryDy=0;" edge="1" parent="1">
          <mxGeometry width="50" height="50" relative="1" as="geometry">
            <mxPoint x="-585" y="194" as="sourcePoint" />
            <mxPoint x="-450" y="195.5" as="targetPoint" />
          </mxGeometry>
        </mxCell>
        <mxCell id="MJDXx_GrSuv8oWpGFcrC-12" value="&lt;font style=&quot;font-size: 15px;&quot;&gt;Billing&lt;/font&gt;&lt;div&gt;&lt;font style=&quot;font-size: 15px;&quot;&gt;statement&lt;/font&gt;&lt;/div&gt;" style="text;html=1;align=center;verticalAlign=middle;resizable=0;points=[];autosize=1;strokeColor=none;fillColor=none;" vertex="1" parent="1">
          <mxGeometry x="-1045" y="128" width="90" height="50" as="geometry" />
        </mxCell>
        <mxCell id="MJDXx_GrSuv8oWpGFcrC-14" value="&lt;font style=&quot;font-size: 15px;&quot;&gt;billing&amp;nbsp;&lt;/font&gt;&lt;div&gt;&lt;font style=&quot;font-size: 15px;&quot;&gt;proccess&lt;/font&gt;&lt;/div&gt;" style="text;html=1;align=center;verticalAlign=middle;resizable=0;points=[];autosize=1;strokeColor=none;fillColor=none;" vertex="1" parent="1">
          <mxGeometry x="-830" y="138" width="80" height="50" as="geometry" />
        </mxCell>
        <mxCell id="MJDXx_GrSuv8oWpGFcrC-15" value="&lt;font style=&quot;font-size: 15px;&quot;&gt;response&lt;/font&gt;" style="text;html=1;align=center;verticalAlign=middle;resizable=0;points=[];autosize=1;strokeColor=none;fillColor=none;" vertex="1" parent="1">
          <mxGeometry x="-825" y="213" width="90" height="30" as="geometry" />
        </mxCell>
        <mxCell id="MJDXx_GrSuv8oWpGFcrC-16" value="&lt;font style=&quot;font-size: 15px;&quot;&gt;payment&lt;/font&gt;" style="text;html=1;align=center;verticalAlign=middle;resizable=0;points=[];autosize=1;strokeColor=none;fillColor=none;" vertex="1" parent="1">
          <mxGeometry x="-555" y="218" width="80" height="30" as="geometry" />
        </mxCell>
        <mxCell id="MJDXx_GrSuv8oWpGFcrC-17" value="" style="endArrow=classic;html=1;rounded=0;exitX=0.067;exitY=1.075;exitDx=0;exitDy=0;exitPerimeter=0;" edge="1" parent="1">
          <mxGeometry width="50" height="50" relative="1" as="geometry">
            <mxPoint x="-450" y="218" as="sourcePoint" />
            <mxPoint x="-590" y="218" as="targetPoint" />
          </mxGeometry>
        </mxCell>
        <mxCell id="MJDXx_GrSuv8oWpGFcrC-18" value="&lt;font style=&quot;font-size: 15px;&quot;&gt;check account&lt;/font&gt;" style="text;html=1;align=center;verticalAlign=middle;resizable=0;points=[];autosize=1;strokeColor=none;fillColor=none;" vertex="1" parent="1">
          <mxGeometry x="-585" y="158" width="120" height="30" as="geometry" />
        </mxCell>
        <mxCell id="MJDXx_GrSuv8oWpGFcrC-48" value="&lt;font style=&quot;font-size: 20px;&quot;&gt;Level2&lt;/font&gt;&lt;div style=&quot;font-size: 20px;&quot;&gt;&lt;br&gt;&lt;/div&gt;" style="text;html=1;align=center;verticalAlign=middle;resizable=0;points=[];autosize=1;strokeColor=none;fillColor=none;" vertex="1" parent="1">
          <mxGeometry x="-770" y="20" width="80" height="60" as="geometry" />
        </mxCell>
        <mxCell id="MJDXx_GrSuv8oWpGFcrC-49" value="&lt;font style=&quot;font-size: 30px;&quot;&gt;Expense Exploition&lt;/font&gt;&lt;div style=&quot;font-size: 30px;&quot;&gt;&lt;br&gt;&lt;/div&gt;" style="text;html=1;align=center;verticalAlign=middle;resizable=0;points=[];autosize=1;strokeColor=none;fillColor=none;" vertex="1" parent="1">
          <mxGeometry x="-880" y="38" width="280" height="90" as="geometry" />
        </mxCell>
        <mxCell id="MJDXx_GrSuv8oWpGFcrC-50" value="&lt;font style=&quot;font-size: 19px;&quot;&gt;Bank&lt;/font&gt;" style="whiteSpace=wrap;html=1;aspect=fixed;" vertex="1" parent="1">
          <mxGeometry x="-695" y="133" width="110" height="110" as="geometry" />
        </mxCell>
        <mxCell id="MJDXx_GrSuv8oWpGFcrC-51" value="2.2" style="swimlane;whiteSpace=wrap;html=1;startSize=23;" vertex="1" parent="1">
          <mxGeometry x="-450" y="138" width="100" height="130" as="geometry" />
        </mxCell>
        <mxCell id="MJDXx_GrSuv8oWpGFcrC-52" value="&lt;div&gt;&lt;font style=&quot;font-size: 19px;&quot;&gt;check&lt;/font&gt;&lt;/div&gt;&lt;div&gt;&lt;span style=&quot;font-size: 19px;&quot;&gt;account&lt;/span&gt;&lt;/div&gt;" style="text;html=1;align=center;verticalAlign=middle;resizable=0;points=[];autosize=1;strokeColor=none;fillColor=none;" vertex="1" parent="MJDXx_GrSuv8oWpGFcrC-51">
          <mxGeometry x="5" y="35" width="90" height="60" as="geometry" />
        </mxCell>
      </root>
    </mxGraphModel>
  </diagram>
</mxfile>
